<mxfile host="app.diagrams.net" agent="Mozilla/5.0 (X11; Ubuntu; Linux x86_64; rv:131.0) Gecko/20100101 Firefox/131.0" version="24.7.17">
  <diagram name="Page-1" id="FDV19de-55_DVJbtxGWt">
    <mxGraphModel dx="1140" dy="635" grid="1" gridSize="10" guides="1" tooltips="1" connect="1" arrows="1" fold="1" page="1" pageScale="1" pageWidth="1169" pageHeight="827" math="0" shadow="0">
      <root>
        <mxCell id="0" />
        <mxCell id="1" parent="0" />
        <mxCell id="NcPYP_LeRK5lW-dNlkG_-1" value="Mindmap" style="swimlane;startSize=20;horizontal=1;containerType=tree;" vertex="1" parent="1">
          <mxGeometry x="60" y="130" width="970" height="440" as="geometry" />
        </mxCell>
        <mxCell id="NcPYP_LeRK5lW-dNlkG_-2" value="" style="edgeStyle=entityRelationEdgeStyle;startArrow=none;endArrow=none;segment=10;curved=1;sourcePerimeterSpacing=0;targetPerimeterSpacing=0;rounded=0;" edge="1" parent="NcPYP_LeRK5lW-dNlkG_-1" source="NcPYP_LeRK5lW-dNlkG_-6" target="NcPYP_LeRK5lW-dNlkG_-7">
          <mxGeometry relative="1" as="geometry" />
        </mxCell>
        <mxCell id="NcPYP_LeRK5lW-dNlkG_-31" value="peut être" style="edgeLabel;html=1;align=center;verticalAlign=middle;resizable=0;points=[];" vertex="1" connectable="0" parent="NcPYP_LeRK5lW-dNlkG_-2">
          <mxGeometry x="-0.12" y="-1" relative="1" as="geometry">
            <mxPoint as="offset" />
          </mxGeometry>
        </mxCell>
        <mxCell id="NcPYP_LeRK5lW-dNlkG_-4" value="" style="edgeStyle=entityRelationEdgeStyle;startArrow=none;endArrow=none;segment=10;curved=1;sourcePerimeterSpacing=0;targetPerimeterSpacing=0;rounded=0;exitX=0.71;exitY=0.95;exitDx=0;exitDy=0;exitPerimeter=0;entryX=0;entryY=0.5;entryDx=0;entryDy=0;" edge="1" parent="NcPYP_LeRK5lW-dNlkG_-1" source="NcPYP_LeRK5lW-dNlkG_-6" target="NcPYP_LeRK5lW-dNlkG_-12">
          <mxGeometry relative="1" as="geometry">
            <mxPoint x="450" y="170" as="sourcePoint" />
            <mxPoint x="510" y="240" as="targetPoint" />
            <Array as="points">
              <mxPoint x="460" y="210" />
              <mxPoint x="410" y="230" />
            </Array>
          </mxGeometry>
        </mxCell>
        <mxCell id="NcPYP_LeRK5lW-dNlkG_-33" value="peut être" style="edgeLabel;html=1;align=center;verticalAlign=middle;resizable=0;points=[];" vertex="1" connectable="0" parent="NcPYP_LeRK5lW-dNlkG_-4">
          <mxGeometry x="-0.0232" y="2" relative="1" as="geometry">
            <mxPoint as="offset" />
          </mxGeometry>
        </mxCell>
        <mxCell id="NcPYP_LeRK5lW-dNlkG_-6" value="Type de projet " style="ellipse;whiteSpace=wrap;html=1;align=center;treeFolding=1;treeMoving=1;newEdgeStyle={&quot;edgeStyle&quot;:&quot;entityRelationEdgeStyle&quot;,&quot;startArrow&quot;:&quot;none&quot;,&quot;endArrow&quot;:&quot;none&quot;,&quot;segment&quot;:10,&quot;curved&quot;:1,&quot;sourcePerimeterSpacing&quot;:0,&quot;targetPerimeterSpacing&quot;:0};" vertex="1" parent="NcPYP_LeRK5lW-dNlkG_-1">
          <mxGeometry x="430" y="150" width="100" height="40" as="geometry" />
        </mxCell>
        <mxCell id="NcPYP_LeRK5lW-dNlkG_-7" value="joint venture" style="whiteSpace=wrap;html=1;rounded=1;arcSize=50;align=center;verticalAlign=middle;strokeWidth=1;autosize=1;spacing=4;treeFolding=1;treeMoving=1;newEdgeStyle={&quot;edgeStyle&quot;:&quot;entityRelationEdgeStyle&quot;,&quot;startArrow&quot;:&quot;none&quot;,&quot;endArrow&quot;:&quot;none&quot;,&quot;segment&quot;:10,&quot;curved&quot;:1,&quot;sourcePerimeterSpacing&quot;:0,&quot;targetPerimeterSpacing&quot;:0};" vertex="1" parent="NcPYP_LeRK5lW-dNlkG_-1">
          <mxGeometry x="630" y="155" width="110" height="30" as="geometry" />
        </mxCell>
        <mxCell id="NcPYP_LeRK5lW-dNlkG_-9" value="local" style="whiteSpace=wrap;html=1;rounded=1;arcSize=50;align=center;verticalAlign=middle;strokeWidth=1;autosize=1;spacing=4;treeFolding=1;treeMoving=1;newEdgeStyle={&quot;edgeStyle&quot;:&quot;entityRelationEdgeStyle&quot;,&quot;startArrow&quot;:&quot;none&quot;,&quot;endArrow&quot;:&quot;none&quot;,&quot;segment&quot;:10,&quot;curved&quot;:1,&quot;sourcePerimeterSpacing&quot;:0,&quot;targetPerimeterSpacing&quot;:0};" vertex="1" parent="NcPYP_LeRK5lW-dNlkG_-1">
          <mxGeometry x="265" y="155" width="70" height="30" as="geometry" />
        </mxCell>
        <mxCell id="NcPYP_LeRK5lW-dNlkG_-11" value="" style="edgeStyle=entityRelationEdgeStyle;startArrow=none;endArrow=none;segment=10;curved=1;sourcePerimeterSpacing=0;targetPerimeterSpacing=0;rounded=0;exitX=0.383;exitY=0.992;exitDx=0;exitDy=0;exitPerimeter=0;entryX=0.5;entryY=0;entryDx=0;entryDy=0;" edge="1" target="NcPYP_LeRK5lW-dNlkG_-14" source="NcPYP_LeRK5lW-dNlkG_-6" parent="NcPYP_LeRK5lW-dNlkG_-1">
          <mxGeometry relative="1" as="geometry">
            <mxPoint x="470" y="290" as="sourcePoint" />
          </mxGeometry>
        </mxCell>
        <mxCell id="NcPYP_LeRK5lW-dNlkG_-34" value="peut être" style="edgeLabel;html=1;align=center;verticalAlign=middle;resizable=0;points=[];" vertex="1" connectable="0" parent="NcPYP_LeRK5lW-dNlkG_-11">
          <mxGeometry x="-0.2717" relative="1" as="geometry">
            <mxPoint as="offset" />
          </mxGeometry>
        </mxCell>
        <mxCell id="NcPYP_LeRK5lW-dNlkG_-12" value="sorti" style="whiteSpace=wrap;html=1;rounded=1;arcSize=50;align=center;verticalAlign=middle;strokeWidth=1;autosize=1;spacing=4;treeFolding=1;treeMoving=1;newEdgeStyle={&quot;edgeStyle&quot;:&quot;entityRelationEdgeStyle&quot;,&quot;startArrow&quot;:&quot;none&quot;,&quot;endArrow&quot;:&quot;none&quot;,&quot;segment&quot;:10,&quot;curved&quot;:1,&quot;sourcePerimeterSpacing&quot;:0,&quot;targetPerimeterSpacing&quot;:0};" vertex="1" parent="NcPYP_LeRK5lW-dNlkG_-1">
          <mxGeometry x="600" y="269" width="70" height="30" as="geometry" />
        </mxCell>
        <mxCell id="NcPYP_LeRK5lW-dNlkG_-13" value="" style="edgeStyle=entityRelationEdgeStyle;startArrow=none;endArrow=none;segment=10;curved=1;sourcePerimeterSpacing=0;targetPerimeterSpacing=0;rounded=0;exitX=0;exitY=0.5;exitDx=0;exitDy=0;" edge="1" target="NcPYP_LeRK5lW-dNlkG_-9" source="NcPYP_LeRK5lW-dNlkG_-6" parent="NcPYP_LeRK5lW-dNlkG_-1">
          <mxGeometry relative="1" as="geometry">
            <mxPoint x="507" y="307" as="sourcePoint" />
          </mxGeometry>
        </mxCell>
        <mxCell id="NcPYP_LeRK5lW-dNlkG_-30" value="peut être" style="edgeLabel;html=1;align=center;verticalAlign=middle;resizable=0;points=[];" vertex="1" connectable="0" parent="NcPYP_LeRK5lW-dNlkG_-13">
          <mxGeometry x="-0.0035" y="-1" relative="1" as="geometry">
            <mxPoint as="offset" />
          </mxGeometry>
        </mxCell>
        <mxCell id="NcPYP_LeRK5lW-dNlkG_-14" value="transversaux" style="whiteSpace=wrap;html=1;rounded=1;arcSize=50;align=center;verticalAlign=middle;strokeWidth=1;autosize=1;spacing=4;treeFolding=1;treeMoving=1;newEdgeStyle={&quot;edgeStyle&quot;:&quot;entityRelationEdgeStyle&quot;,&quot;startArrow&quot;:&quot;none&quot;,&quot;endArrow&quot;:&quot;none&quot;,&quot;segment&quot;:10,&quot;curved&quot;:1,&quot;sourcePerimeterSpacing&quot;:0,&quot;targetPerimeterSpacing&quot;:0};" vertex="1" parent="NcPYP_LeRK5lW-dNlkG_-1">
          <mxGeometry x="365" y="225" width="110" height="30" as="geometry" />
        </mxCell>
        <mxCell id="NcPYP_LeRK5lW-dNlkG_-22" value="" style="edgeStyle=entityRelationEdgeStyle;startArrow=none;endArrow=none;segment=10;curved=1;sourcePerimeterSpacing=0;targetPerimeterSpacing=0;rounded=0;exitX=0.5;exitY=1;exitDx=0;exitDy=0;" edge="1" target="NcPYP_LeRK5lW-dNlkG_-23" source="NcPYP_LeRK5lW-dNlkG_-14" parent="NcPYP_LeRK5lW-dNlkG_-1">
          <mxGeometry relative="1" as="geometry">
            <mxPoint x="507" y="307" as="sourcePoint" />
            <Array as="points">
              <mxPoint x="420" y="290" />
              <mxPoint x="430" y="300" />
              <mxPoint x="420" y="290" />
              <mxPoint x="410" y="280" />
            </Array>
          </mxGeometry>
        </mxCell>
        <mxCell id="NcPYP_LeRK5lW-dNlkG_-23" value="matrice fort" style="whiteSpace=wrap;html=1;rounded=1;arcSize=50;align=center;verticalAlign=middle;strokeWidth=1;autosize=1;spacing=4;treeFolding=1;treeMoving=1;newEdgeStyle={&quot;edgeStyle&quot;:&quot;entityRelationEdgeStyle&quot;,&quot;startArrow&quot;:&quot;none&quot;,&quot;endArrow&quot;:&quot;none&quot;,&quot;segment&quot;:10,&quot;curved&quot;:1,&quot;sourcePerimeterSpacing&quot;:0,&quot;targetPerimeterSpacing&quot;:0};" vertex="1" parent="NcPYP_LeRK5lW-dNlkG_-1">
          <mxGeometry x="450" y="280" width="100" height="30" as="geometry" />
        </mxCell>
        <mxCell id="NcPYP_LeRK5lW-dNlkG_-24" value="" style="edgeStyle=entityRelationEdgeStyle;startArrow=none;endArrow=none;segment=10;curved=1;sourcePerimeterSpacing=0;targetPerimeterSpacing=0;rounded=0;exitX=0.37;exitY=0.925;exitDx=0;exitDy=0;exitPerimeter=0;" edge="1" target="NcPYP_LeRK5lW-dNlkG_-25" source="NcPYP_LeRK5lW-dNlkG_-14" parent="NcPYP_LeRK5lW-dNlkG_-1">
          <mxGeometry relative="1" as="geometry">
            <mxPoint x="507" y="307" as="sourcePoint" />
          </mxGeometry>
        </mxCell>
        <mxCell id="NcPYP_LeRK5lW-dNlkG_-25" value="coordination" style="whiteSpace=wrap;html=1;rounded=1;arcSize=50;align=center;verticalAlign=middle;strokeWidth=1;autosize=1;spacing=4;treeFolding=1;treeMoving=1;newEdgeStyle={&quot;edgeStyle&quot;:&quot;entityRelationEdgeStyle&quot;,&quot;startArrow&quot;:&quot;none&quot;,&quot;endArrow&quot;:&quot;none&quot;,&quot;segment&quot;:10,&quot;curved&quot;:1,&quot;sourcePerimeterSpacing&quot;:0,&quot;targetPerimeterSpacing&quot;:0};" vertex="1" parent="NcPYP_LeRK5lW-dNlkG_-1">
          <mxGeometry x="290" y="284" width="110" height="30" as="geometry" />
        </mxCell>
        <mxCell id="NcPYP_LeRK5lW-dNlkG_-26" value="" style="edgeStyle=entityRelationEdgeStyle;startArrow=none;endArrow=none;segment=10;curved=1;sourcePerimeterSpacing=0;targetPerimeterSpacing=0;rounded=0;exitX=0.37;exitY=0.925;exitDx=0;exitDy=0;exitPerimeter=0;" edge="1" target="NcPYP_LeRK5lW-dNlkG_-27" source="NcPYP_LeRK5lW-dNlkG_-14" parent="NcPYP_LeRK5lW-dNlkG_-1">
          <mxGeometry relative="1" as="geometry">
            <mxPoint x="507" y="307" as="sourcePoint" />
          </mxGeometry>
        </mxCell>
        <mxCell id="NcPYP_LeRK5lW-dNlkG_-27" value="fonctionnel" style="whiteSpace=wrap;html=1;rounded=1;arcSize=50;align=center;verticalAlign=middle;strokeWidth=1;autosize=1;spacing=4;treeFolding=1;treeMoving=1;newEdgeStyle={&quot;edgeStyle&quot;:&quot;entityRelationEdgeStyle&quot;,&quot;startArrow&quot;:&quot;none&quot;,&quot;endArrow&quot;:&quot;none&quot;,&quot;segment&quot;:10,&quot;curved&quot;:1,&quot;sourcePerimeterSpacing&quot;:0,&quot;targetPerimeterSpacing&quot;:0};" vertex="1" parent="NcPYP_LeRK5lW-dNlkG_-1">
          <mxGeometry x="165" y="284" width="100" height="30" as="geometry" />
        </mxCell>
        <mxCell id="NcPYP_LeRK5lW-dNlkG_-29" value="peut être" style="endArrow=classic;html=1;rounded=0;entryX=0;entryY=0.5;entryDx=0;entryDy=0;" edge="1" parent="NcPYP_LeRK5lW-dNlkG_-1" source="NcPYP_LeRK5lW-dNlkG_-14" target="NcPYP_LeRK5lW-dNlkG_-12">
          <mxGeometry width="50" height="50" relative="1" as="geometry">
            <mxPoint x="500" y="290" as="sourcePoint" />
            <mxPoint x="600" y="240" as="targetPoint" />
          </mxGeometry>
        </mxCell>
      </root>
    </mxGraphModel>
  </diagram>
</mxfile>
